<svg width="224" height="77" viewBox="0 0 224 77" fill="none" xmlns="http://www.w3.org/2000/svg">
<path d="M92.5625 52H88.0781V29.5938H92.5625V40.7969L100.906 29.5938H106L98.9219 39.0469L106 52H100.906L95.9844 42.9375L92.5625 47.5156V52ZM112.812 30.7188C112.812 31.1146 112.734 31.4844 112.578 31.8281C112.432 32.1719 112.229 32.474 111.969 32.7344C111.708 32.9844 111.401 33.1875 111.047 33.3438C110.703 33.4896 110.333 33.5625 109.938 33.5625C109.542 33.5625 109.167 33.4896 108.812 33.3438C108.469 33.1875 108.167 32.9844 107.906 32.7344C107.656 32.474 107.453 32.1719 107.297 31.8281C107.151 31.4844 107.078 31.1146 107.078 30.7188C107.078 30.3333 107.151 29.9688 107.297 29.625C107.453 29.2708 107.656 28.9688 107.906 28.7188C108.167 28.4583 108.469 28.2552 108.812 28.1094C109.167 27.9531 109.542 27.875 109.938 27.875C110.333 27.875 110.703 27.9531 111.047 28.1094C111.401 28.2552 111.708 28.4583 111.969 28.7188C112.229 28.9688 112.432 29.2708 112.578 29.625C112.734 29.9688 112.812 30.3333 112.812 30.7188ZM112.078 52H107.781V35.2656H112.078V52ZM131.516 52H130.484L128.828 49.7031C128.422 50.0677 127.99 50.4115 127.531 50.7344C127.083 51.0469 126.609 51.3229 126.109 51.5625C125.609 51.7917 125.094 51.974 124.562 52.1094C124.042 52.2448 123.51 52.3125 122.969 52.3125C121.792 52.3125 120.682 52.0938 119.641 51.6562C118.609 51.2083 117.703 50.5938 116.922 49.8125C116.151 49.0208 115.542 48.0885 115.094 47.0156C114.646 45.9323 114.422 44.7552 114.422 43.4844C114.422 42.224 114.646 41.0521 115.094 39.9688C115.542 38.8854 116.151 37.9479 116.922 37.1562C117.703 36.3646 118.609 35.7448 119.641 35.2969C120.682 34.849 121.792 34.625 122.969 34.625C123.344 34.625 123.729 34.6562 124.125 34.7188C124.531 34.7812 124.922 34.8854 125.297 35.0312C125.682 35.1667 126.042 35.349 126.375 35.5781C126.708 35.8073 126.99 36.0885 127.219 36.4219V28.6094H131.516V52ZM127.219 43.4844C127.219 42.901 127.104 42.3385 126.875 41.7969C126.656 41.2448 126.354 40.7604 125.969 40.3438C125.583 39.9167 125.13 39.5781 124.609 39.3281C124.099 39.0677 123.552 38.9375 122.969 38.9375C122.385 38.9375 121.833 39.0417 121.312 39.25C120.802 39.4583 120.354 39.7604 119.969 40.1562C119.594 40.5417 119.297 41.0156 119.078 41.5781C118.859 42.1406 118.75 42.776 118.75 43.4844C118.75 44.099 118.859 44.6823 119.078 45.2344C119.297 45.7865 119.594 46.2708 119.969 46.6875C120.354 47.1042 120.802 47.4323 121.312 47.6719C121.833 47.9115 122.385 48.0312 122.969 48.0312C123.552 48.0312 124.099 47.9062 124.609 47.6562C125.13 47.3958 125.583 47.0573 125.969 46.6406C126.354 46.2135 126.656 45.7292 126.875 45.1875C127.104 44.6354 127.219 44.0677 127.219 43.4844ZM184.047 52H179.75V28.6094H184.047V52ZM210.812 58.375V54.0781L213.188 54.1094C213.604 54.1094 214.005 54.0417 214.391 53.9062C214.776 53.7708 215.13 53.5833 215.453 53.3438C215.786 53.1042 216.078 52.8177 216.328 52.4844C216.578 52.1615 216.781 51.8073 216.938 51.4219C216.469 51.6198 215.99 51.8177 215.5 52.0156C215.021 52.2135 214.536 52.3125 214.047 52.3125C213.016 52.3125 212.047 52.1302 211.141 51.7656C210.234 51.401 209.438 50.8854 208.75 50.2188C208.073 49.5417 207.536 48.724 207.141 47.7656C206.755 46.7969 206.562 45.7135 206.562 44.5156V35.2656H210.812V44.5156C210.812 45.1094 210.896 45.6302 211.062 46.0781C211.24 46.5156 211.474 46.8854 211.766 47.1875C212.057 47.4792 212.396 47.6979 212.781 47.8438C213.177 47.9896 213.599 48.0625 214.047 48.0625C214.484 48.0625 214.896 47.9635 215.281 47.7656C215.677 47.5573 216.021 47.2865 216.312 46.9531C216.604 46.6198 216.833 46.2448 217 45.8281C217.167 45.401 217.25 44.9635 217.25 44.5156V35.2656H221.547V49.8906C221.536 51.0677 221.307 52.1719 220.859 53.2031C220.411 54.2344 219.797 55.1354 219.016 55.9062C218.245 56.6771 217.344 57.2865 216.312 57.7344C215.281 58.1823 214.177 58.4062 213 58.4062L210.812 58.375Z" fill="white"/>
<path d="M147.844 52H133.891L140.938 39.5469H133.891V35.2969H147.844L140.797 47.75H147.844V52ZM164.125 34.0781V43.0469H168.609C169.224 43.0469 169.802 42.9323 170.344 42.7031C170.885 42.4635 171.359 42.1406 171.766 41.7344C172.172 41.3281 172.49 40.8542 172.719 40.3125C172.958 39.7604 173.078 39.1771 173.078 38.5625C173.078 37.9479 172.958 37.3698 172.719 36.8281C172.49 36.276 172.172 35.7969 171.766 35.3906C171.359 34.9844 170.885 34.6667 170.344 34.4375C169.802 34.1979 169.224 34.0781 168.609 34.0781H164.125ZM164.125 52H159.641V29.5938H168.609C169.432 29.5938 170.224 29.7031 170.984 29.9219C171.745 30.1302 172.453 30.4323 173.109 30.8281C173.776 31.2135 174.38 31.6823 174.922 32.2344C175.474 32.776 175.943 33.3802 176.328 34.0469C176.724 34.7135 177.026 35.4271 177.234 36.1875C177.453 36.9479 177.562 37.7396 177.562 38.5625C177.562 39.7917 177.328 40.9531 176.859 42.0469C176.391 43.1302 175.75 44.0781 174.938 44.8906C174.125 45.7031 173.172 46.3438 172.078 46.8125C170.995 47.2812 169.839 47.5156 168.609 47.5156H164.125V52ZM203.516 52H202.484L200.828 49.7031C200.422 50.0677 199.99 50.4115 199.531 50.7344C199.083 51.0469 198.609 51.3229 198.109 51.5625C197.609 51.7917 197.094 51.974 196.562 52.1094C196.042 52.2448 195.51 52.3125 194.969 52.3125C193.792 52.3125 192.682 52.1146 191.641 51.7188C190.609 51.3229 189.703 50.75 188.922 50C188.151 49.2396 187.542 48.3125 187.094 47.2188C186.646 46.125 186.422 44.8802 186.422 43.4844C186.422 42.1823 186.646 40.9896 187.094 39.9062C187.542 38.8125 188.151 37.875 188.922 37.0938C189.703 36.3125 190.609 35.7083 191.641 35.2812C192.682 34.8438 193.792 34.625 194.969 34.625C195.51 34.625 196.047 34.6927 196.578 34.8281C197.109 34.9635 197.625 35.151 198.125 35.3906C198.625 35.6302 199.099 35.9115 199.547 36.2344C200.005 36.5573 200.432 36.9062 200.828 37.2812L202.484 35.2969H203.516V52ZM199.219 43.4844C199.219 42.901 199.104 42.3385 198.875 41.7969C198.656 41.2448 198.354 40.7604 197.969 40.3438C197.583 39.9167 197.13 39.5781 196.609 39.3281C196.099 39.0677 195.552 38.9375 194.969 38.9375C194.385 38.9375 193.833 39.0365 193.312 39.2344C192.802 39.4323 192.354 39.724 191.969 40.1094C191.594 40.4948 191.297 40.974 191.078 41.5469C190.859 42.1094 190.75 42.7552 190.75 43.4844C190.75 44.2135 190.859 44.8646 191.078 45.4375C191.297 46 191.594 46.474 191.969 46.8594C192.354 47.2448 192.802 47.5365 193.312 47.7344C193.833 47.9323 194.385 48.0312 194.969 48.0312C195.552 48.0312 196.099 47.9062 196.609 47.6562C197.13 47.3958 197.583 47.0573 197.969 46.6406C198.354 46.2135 198.656 45.7292 198.875 45.1875C199.104 44.6354 199.219 44.0677 199.219 43.4844Z" fill="#D06E06"/>
<path d="M77 38.5C77 59.763 59.763 77 38.5 77C17.237 77 0 59.763 0 38.5C0 17.237 17.237 0 38.5 0C59.763 0 77 17.237 77 38.5Z" fill="#D06E06"/>
<path d="M19.0234 55H12.8574V24.1914H19.0234V39.5957L30.4961 24.1914H37.5L27.7676 37.1895L37.5 55H30.4961L23.7285 42.5391L19.0234 48.834V55ZM46.5234 30.3574V42.6895H52.6895C53.5345 42.6895 54.3294 42.5319 55.0742 42.2168C55.819 41.8874 56.4707 41.4434 57.0293 40.8848C57.5879 40.3262 58.0247 39.6745 58.3398 38.9297C58.6693 38.1706 58.834 37.3685 58.834 36.5234C58.834 35.6784 58.6693 34.8835 58.3398 34.1387C58.0247 33.3796 57.5879 32.7207 57.0293 32.1621C56.4707 31.6035 55.819 31.1667 55.0742 30.8516C54.3294 30.5221 53.5345 30.3574 52.6895 30.3574H46.5234ZM46.5234 55H40.3574V24.1914H52.6895C53.821 24.1914 54.9095 24.3418 55.9551 24.6426C57.0007 24.929 57.9746 25.3444 58.877 25.8887C59.7936 26.4186 60.6243 27.0632 61.3691 27.8223C62.1283 28.5671 62.7728 29.3978 63.3027 30.3145C63.847 31.2311 64.2624 32.2122 64.5488 33.2578C64.8496 34.3034 65 35.3919 65 36.5234C65 38.2135 64.6777 39.8105 64.0332 41.3145C63.3887 42.804 62.5078 44.1074 61.3906 45.2246C60.2734 46.3418 58.9629 47.2227 57.459 47.8672C55.9694 48.5117 54.3796 48.834 52.6895 48.834H46.5234V55Z" fill="white"/>
<circle cx="110" cy="31" r="3" fill="#D06E06"/>
<circle cx="123" cy="43" r="5" fill="#D06E06"/>
<rect x="88" y="29" width="5" height="23" fill="#D06E06"/>
</svg>
