<svg width="215" height="77" viewBox="0 0 215 77" fill="none" xmlns="http://www.w3.org/2000/svg">
<path d="M92.5625 52H88.0781V29.5938H92.5625V40.7969L100.906 29.5938H106L98.9219 39.0469L106 52H100.906L95.9844 42.9375L92.5625 47.5156V52ZM112.812 30.7188C112.812 31.1146 112.734 31.4844 112.578 31.8281C112.432 32.1719 112.229 32.474 111.969 32.7344C111.708 32.9844 111.401 33.1875 111.047 33.3438C110.703 33.4896 110.333 33.5625 109.938 33.5625C109.542 33.5625 109.167 33.4896 108.812 33.3438C108.469 33.1875 108.167 32.9844 107.906 32.7344C107.656 32.474 107.453 32.1719 107.297 31.8281C107.151 31.4844 107.078 31.1146 107.078 30.7188C107.078 30.3333 107.151 29.9688 107.297 29.625C107.453 29.2708 107.656 28.9688 107.906 28.7188C108.167 28.4583 108.469 28.2552 108.812 28.1094C109.167 27.9531 109.542 27.875 109.938 27.875C110.333 27.875 110.703 27.9531 111.047 28.1094C111.401 28.2552 111.708 28.4583 111.969 28.7188C112.229 28.9688 112.432 29.2708 112.578 29.625C112.734 29.9688 112.812 30.3333 112.812 30.7188ZM112.078 52H107.781V35.2656H112.078V52ZM131.516 52H130.484L128.828 49.7031C128.422 50.0677 127.99 50.4115 127.531 50.7344C127.083 51.0469 126.609 51.3229 126.109 51.5625C125.609 51.7917 125.094 51.974 124.562 52.1094C124.042 52.2448 123.51 52.3125 122.969 52.3125C121.792 52.3125 120.682 52.0938 119.641 51.6562C118.609 51.2083 117.703 50.5938 116.922 49.8125C116.151 49.0208 115.542 48.0885 115.094 47.0156C114.646 45.9323 114.422 44.7552 114.422 43.4844C114.422 42.224 114.646 41.0521 115.094 39.9688C115.542 38.8854 116.151 37.9479 116.922 37.1562C117.703 36.3646 118.609 35.7448 119.641 35.2969C120.682 34.849 121.792 34.625 122.969 34.625C123.344 34.625 123.729 34.6562 124.125 34.7188C124.531 34.7812 124.922 34.8854 125.297 35.0312C125.682 35.1667 126.042 35.349 126.375 35.5781C126.708 35.8073 126.99 36.0885 127.219 36.4219V28.6094H131.516V52ZM127.219 43.4844C127.219 42.901 127.104 42.3385 126.875 41.7969C126.656 41.2448 126.354 40.7604 125.969 40.3438C125.583 39.9167 125.13 39.5781 124.609 39.3281C124.099 39.0677 123.552 38.9375 122.969 38.9375C122.385 38.9375 121.833 39.0417 121.312 39.25C120.802 39.4583 120.354 39.7604 119.969 40.1562C119.594 40.5417 119.297 41.0156 119.078 41.5781C118.859 42.1406 118.75 42.776 118.75 43.4844C118.75 44.099 118.859 44.6823 119.078 45.2344C119.297 45.7865 119.594 46.2708 119.969 46.6875C120.354 47.1042 120.802 47.4323 121.312 47.6719C121.833 47.9115 122.385 48.0312 122.969 48.0312C123.552 48.0312 124.099 47.9062 124.609 47.6562C125.13 47.3958 125.583 47.0573 125.969 46.6406C126.354 46.2135 126.656 45.7292 126.875 45.1875C127.104 44.6354 127.219 44.0677 127.219 43.4844ZM147.844 52H133.891L140.938 39.5469H133.891V35.2969H147.844L140.797 47.75H147.844V52ZM175.078 52H170.781V28.6094H175.078V52ZM201.844 58.375V54.0781L204.219 54.1094C204.635 54.1094 205.036 54.0417 205.422 53.9062C205.807 53.7708 206.161 53.5833 206.484 53.3438C206.818 53.1042 207.109 52.8177 207.359 52.4844C207.609 52.1615 207.812 51.8073 207.969 51.4219C207.5 51.6198 207.021 51.8177 206.531 52.0156C206.052 52.2135 205.568 52.3125 205.078 52.3125C204.047 52.3125 203.078 52.1302 202.172 51.7656C201.266 51.401 200.469 50.8854 199.781 50.2188C199.104 49.5417 198.568 48.724 198.172 47.7656C197.786 46.7969 197.594 45.7135 197.594 44.5156V35.2656H201.844V44.5156C201.844 45.1094 201.927 45.6302 202.094 46.0781C202.271 46.5156 202.505 46.8854 202.797 47.1875C203.089 47.4792 203.427 47.6979 203.812 47.8438C204.208 47.9896 204.63 48.0625 205.078 48.0625C205.516 48.0625 205.927 47.9635 206.312 47.7656C206.708 47.5573 207.052 47.2865 207.344 46.9531C207.635 46.6198 207.865 46.2448 208.031 45.8281C208.198 45.401 208.281 44.9635 208.281 44.5156V35.2656H212.578V49.8906C212.568 51.0677 212.339 52.1719 211.891 53.2031C211.443 54.2344 210.828 55.1354 210.047 55.9062C209.276 56.6771 208.375 57.2865 207.344 57.7344C206.312 58.1823 205.208 58.4062 204.031 58.4062L201.844 58.375Z" fill="white"/>
<path d="M155.156 34.0781V43.0469H159.641C160.255 43.0469 160.833 42.9323 161.375 42.7031C161.917 42.4635 162.391 42.1406 162.797 41.7344C163.203 41.3281 163.521 40.8542 163.75 40.3125C163.99 39.7604 164.109 39.1771 164.109 38.5625C164.109 37.9479 163.99 37.3698 163.75 36.8281C163.521 36.276 163.203 35.7969 162.797 35.3906C162.391 34.9844 161.917 34.6667 161.375 34.4375C160.833 34.1979 160.255 34.0781 159.641 34.0781H155.156ZM155.156 52H150.672V29.5938H159.641C160.464 29.5938 161.255 29.7031 162.016 29.9219C162.776 30.1302 163.484 30.4323 164.141 30.8281C164.807 31.2135 165.411 31.6823 165.953 32.2344C166.505 32.776 166.974 33.3802 167.359 34.0469C167.755 34.7135 168.057 35.4271 168.266 36.1875C168.484 36.9479 168.594 37.7396 168.594 38.5625C168.594 39.7917 168.359 40.9531 167.891 42.0469C167.422 43.1302 166.781 44.0781 165.969 44.8906C165.156 45.7031 164.203 46.3438 163.109 46.8125C162.026 47.2812 160.87 47.5156 159.641 47.5156H155.156V52ZM194.547 52H193.516L191.859 49.7031C191.453 50.0677 191.021 50.4115 190.562 50.7344C190.115 51.0469 189.641 51.3229 189.141 51.5625C188.641 51.7917 188.125 51.974 187.594 52.1094C187.073 52.2448 186.542 52.3125 186 52.3125C184.823 52.3125 183.714 52.1146 182.672 51.7188C181.641 51.3229 180.734 50.75 179.953 50C179.182 49.2396 178.573 48.3125 178.125 47.2188C177.677 46.125 177.453 44.8802 177.453 43.4844C177.453 42.1823 177.677 40.9896 178.125 39.9062C178.573 38.8125 179.182 37.875 179.953 37.0938C180.734 36.3125 181.641 35.7083 182.672 35.2812C183.714 34.8438 184.823 34.625 186 34.625C186.542 34.625 187.078 34.6927 187.609 34.8281C188.141 34.9635 188.656 35.151 189.156 35.3906C189.656 35.6302 190.13 35.9115 190.578 36.2344C191.036 36.5573 191.464 36.9062 191.859 37.2812L193.516 35.2969H194.547V52ZM190.25 43.4844C190.25 42.901 190.135 42.3385 189.906 41.7969C189.688 41.2448 189.385 40.7604 189 40.3438C188.615 39.9167 188.161 39.5781 187.641 39.3281C187.13 39.0677 186.583 38.9375 186 38.9375C185.417 38.9375 184.865 39.0365 184.344 39.2344C183.833 39.4323 183.385 39.724 183 40.1094C182.625 40.4948 182.328 40.974 182.109 41.5469C181.891 42.1094 181.781 42.7552 181.781 43.4844C181.781 44.2135 181.891 44.8646 182.109 45.4375C182.328 46 182.625 46.474 183 46.8594C183.385 47.2448 183.833 47.5365 184.344 47.7344C184.865 47.9323 185.417 48.0312 186 48.0312C186.583 48.0312 187.13 47.9062 187.641 47.6562C188.161 47.3958 188.615 47.0573 189 46.6406C189.385 46.2135 189.688 45.7292 189.906 45.1875C190.135 44.6354 190.25 44.0677 190.25 43.4844Z" fill="#D06E06"/>
<path d="M77 38.5C77 59.763 59.763 77 38.5 77C17.237 77 0 59.763 0 38.5C0 17.237 17.237 0 38.5 0C59.763 0 77 17.237 77 38.5Z" fill="#D06E06"/>
<path d="M19.0234 55H12.8574V24.1914H19.0234V39.5957L30.4961 24.1914H37.5L27.7676 37.1895L37.5 55H30.4961L23.7285 42.5391L19.0234 48.834V55ZM46.5234 30.3574V42.6895H52.6895C53.5345 42.6895 54.3294 42.5319 55.0742 42.2168C55.819 41.8874 56.4707 41.4434 57.0293 40.8848C57.5879 40.3262 58.0247 39.6745 58.3398 38.9297C58.6693 38.1706 58.834 37.3685 58.834 36.5234C58.834 35.6784 58.6693 34.8835 58.3398 34.1387C58.0247 33.3796 57.5879 32.7207 57.0293 32.1621C56.4707 31.6035 55.819 31.1667 55.0742 30.8516C54.3294 30.5221 53.5345 30.3574 52.6895 30.3574H46.5234ZM46.5234 55H40.3574V24.1914H52.6895C53.821 24.1914 54.9095 24.3418 55.9551 24.6426C57.0007 24.929 57.9746 25.3444 58.877 25.8887C59.7936 26.4186 60.6243 27.0632 61.3691 27.8223C62.1283 28.5671 62.7728 29.3978 63.3027 30.3145C63.847 31.2311 64.2624 32.2122 64.5488 33.2578C64.8496 34.3034 65 35.3919 65 36.5234C65 38.2135 64.6777 39.8105 64.0332 41.3145C63.3887 42.804 62.5078 44.1074 61.3906 45.2246C60.2734 46.3418 58.9629 47.2227 57.459 47.8672C55.9694 48.5117 54.3796 48.834 52.6895 48.834H46.5234V55Z" fill="white"/>
<circle cx="110" cy="31" r="3" fill="#D06E06"/>
<circle cx="123" cy="43" r="5" fill="#D06E06"/>
<rect x="88" y="29" width="5" height="23" fill="#D06E06"/>
<path d="M133.5 35H148L145.5 39.5H133.5V35Z" fill="#D06E06"/>
<path d="M136 48L148 47.5V52H134L136 48Z" fill="#D06E06"/>
<path d="M101 29.5H106L99 39H94L101 29.5Z" fill="#D06E06"/>
<path d="M96 43H101L106 52H101L96 43Z" fill="#D06E06"/>
<path d="M208 35H212.5V41V47V51L212 53L211.5 54.5L210.5 55.5L209.5 56.5L208 57.5L205.5 58.5H201.5V54H204.5L206 53.5L207.5 52.5L208 51.5V45V35Z" fill="#D06E06"/>
<path d="M46.5 24H49V30.5H46.5V24Z" fill="#D06E06"/>
<path d="M46.5 42.5H49V49H46.5V42.5Z" fill="#D06E06"/>
<path d="M19 39.5L22 35.5L24 43L19 49V39.5Z" fill="#D06E06"/>
</svg>
